<?xml version="1.0" encoding="UTF-8" standalone="no"?><svg xmlns="http://www.w3.org/2000/svg" xmlns:xlink="http://www.w3.org/1999/xlink" contentScriptType="application/ecmascript" contentStyleType="text/css" height="585px" preserveAspectRatio="none" style="width:905px;height:585px;background:#FFFFFF;" version="1.1" viewBox="0 0 905 585" width="905px" zoomAndPan="magnify"><defs><filter height="300%" id="fn7h668pnbtwk" width="300%" x="-1" y="-1"><feGaussianBlur result="blurOut" stdDeviation="2.0"/><feColorMatrix in="blurOut" result="blurOut2" type="matrix" values="0 0 0 0 0 0 0 0 0 0 0 0 0 0 0 0 0 0 .4 0"/><feOffset dx="4.0" dy="4.0" in="blurOut2" result="blurOut3"/><feBlend in="SourceGraphic" in2="blurOut3" mode="normal"/></filter></defs><g><text fill="#000000" font-family="sans-serif" font-size="18" lengthAdjust="spacing" textLength="399" x="246.9255" y="18.6855">Overview of ScadaGateway - AutoPilot installation</text><!--MD5=[693a7a2e6b47db53573f6d6faca0e574]
cluster Scada--><rect fill="#D3D3D3" filter="url(#fn7h668pnbtwk)" height="137" style="stroke:#000000;stroke-width:1.5;" width="118" x="600" y="436.9971"/><text fill="#000000" font-family="sans-serif" font-size="14" font-weight="bold" lengthAdjust="spacing" textLength="42" x="638" y="453.5303">Scada</text><!--MD5=[d3d215dcb3dbf51ff5fb4c29ad8291a4]
cluster Volue--><rect fill="#D3D3D3" filter="url(#fn7h668pnbtwk)" height="478" style="stroke:#000000;stroke-width:1.5;" width="569" x="7" y="95.9971"/><text fill="#000000" font-family="sans-serif" font-size="14" font-weight="bold" lengthAdjust="spacing" textLength="101" x="241" y="112.5303">Volue solution</text><!--MD5=[c0b1e96c6d65c7cc5d23d273b9668996]
cluster Generis--><rect fill="#FFC0CB" filter="url(#fn7h668pnbtwk)" height="137" style="stroke:#000000;stroke-width:1.5;" width="134" x="600" y="112.9971"/><text fill="#000000" font-family="sans-serif" font-size="14" font-weight="bold" lengthAdjust="spacing" textLength="117" x="608.5" y="129.5303">Generis solution</text><!--MD5=[02e59107a19a4ceb3430cc3fd3d4b97a]
entity ScadaSystem--><rect fill="#90EE90" filter="url(#fn7h668pnbtwk)" height="65.2188" style="stroke:#A80036;stroke-width:1.5;" width="86" x="616" y="492.9971"/><rect fill="#90EE90" height="10" style="stroke:#A80036;stroke-width:1.5;" width="15" x="682" y="497.9971"/><rect fill="#90EE90" height="2" style="stroke:#A80036;stroke-width:1.5;" width="4" x="680" y="499.9971"/><rect fill="#90EE90" height="2" style="stroke:#A80036;stroke-width:1.5;" width="4" x="680" y="503.9971"/><text fill="#000000" font-family="sans-serif" font-size="14" lengthAdjust="spacing" textLength="40" x="631" y="527.5303">Scada</text><text fill="#000000" font-family="sans-serif" font-size="14" lengthAdjust="spacing" textLength="46" x="631" y="545.1396">System</text><!--MD5=[2abaffb6d61ca5a39125ab509a7fd871]
entity AutoPilot--><rect fill="#FEFECE" filter="url(#fn7h668pnbtwk)" height="65.2188" style="stroke:#A80036;stroke-width:1.5;" width="135" x="343.5" y="492.9971"/><rect fill="#FEFECE" height="10" style="stroke:#A80036;stroke-width:1.5;" width="15" x="458.5" y="497.9971"/><rect fill="#FEFECE" height="2" style="stroke:#A80036;stroke-width:1.5;" width="4" x="456.5" y="499.9971"/><rect fill="#FEFECE" height="2" style="stroke:#A80036;stroke-width:1.5;" width="4" x="456.5" y="503.9971"/><text fill="#000000" font-family="sans-serif" font-size="14" lengthAdjust="spacing" textLength="95" x="358.5" y="527.5303">ScadaGateway</text><text fill="#000000" font-family="sans-serif" font-size="14" lengthAdjust="spacing" textLength="56" x="378.5" y="545.1396">AutoPilot</text><!--MD5=[31c767324680bc7740f4246d693c99ca]
entity Mesh--><path d="M240,161.9971 C240,151.9971 277,151.9971 277,151.9971 C277,151.9971 314,151.9971 314,161.9971 L314,241.4346 C314,251.4346 277,251.4346 277,251.4346 C277,251.4346 240,251.4346 240,241.4346 L240,161.9971 " fill="#FEFECE" filter="url(#fn7h668pnbtwk)" style="stroke:#000000;stroke-width:1.5;"/><path d="M240,161.9971 C240,171.9971 277,171.9971 277,171.9971 C277,171.9971 314,171.9971 314,161.9971 " fill="none" style="stroke:#000000;stroke-width:1.5;"/><text fill="#000000" font-family="sans-serif" font-size="14" lengthAdjust="spacing" textLength="0" x="254" y="190.5303"/><text fill="#000000" font-family="sans-serif" font-size="14" lengthAdjust="spacing" textLength="42" x="258" y="208.1396">Mesh /</text><text fill="#000000" font-family="sans-serif" font-size="14" lengthAdjust="spacing" textLength="54" x="250" y="225.749">SmG DB</text><text fill="#000000" font-family="sans-serif" font-size="14" lengthAdjust="spacing" textLength="0" x="254" y="243.3584"/><!--MD5=[4f8ceaf617da225fb01a8e9682419e55]
entity Export--><rect fill="#FEFECE" filter="url(#fn7h668pnbtwk)" height="47.6094" style="stroke:#A80036;stroke-width:1.5;" width="80" x="349" y="177.4971"/><rect fill="#FEFECE" height="10" style="stroke:#A80036;stroke-width:1.5;" width="15" x="409" y="182.4971"/><rect fill="#FEFECE" height="2" style="stroke:#A80036;stroke-width:1.5;" width="4" x="407" y="184.4971"/><rect fill="#FEFECE" height="2" style="stroke:#A80036;stroke-width:1.5;" width="4" x="407" y="188.4971"/><text fill="#000000" font-family="sans-serif" font-size="14" lengthAdjust="spacing" textLength="40" x="364" y="212.0303">Export</text><!--MD5=[76a3d58f858a7288493baf458e840b56]
entity AckReceiver--><rect fill="#FEFECE" filter="url(#fn7h668pnbtwk)" height="65.2188" style="stroke:#A80036;stroke-width:1.5;" width="96" x="464" y="168.9971"/><rect fill="#FEFECE" height="10" style="stroke:#A80036;stroke-width:1.5;" width="15" x="540" y="173.9971"/><rect fill="#FEFECE" height="2" style="stroke:#A80036;stroke-width:1.5;" width="4" x="538" y="175.9971"/><rect fill="#FEFECE" height="2" style="stroke:#A80036;stroke-width:1.5;" width="4" x="538" y="179.9971"/><text fill="#000000" font-family="sans-serif" font-size="14" lengthAdjust="spacing" textLength="23" x="495" y="203.5303">Ack</text><text fill="#000000" font-family="sans-serif" font-size="14" lengthAdjust="spacing" textLength="56" x="479" y="221.1396">Receiver</text><!--MD5=[6661b37f36de0cb8b951ee6a7dae48dd]
entity Optimisation--><rect fill="#FEFECE" filter="url(#fn7h668pnbtwk)" height="47.6094" style="stroke:#A80036;stroke-width:1.5;" width="118" x="23" y="177.4971"/><rect fill="#FEFECE" height="10" style="stroke:#A80036;stroke-width:1.5;" width="15" x="121" y="182.4971"/><rect fill="#FEFECE" height="2" style="stroke:#A80036;stroke-width:1.5;" width="4" x="119" y="184.4971"/><rect fill="#FEFECE" height="2" style="stroke:#A80036;stroke-width:1.5;" width="4" x="119" y="188.4971"/><text fill="#000000" font-family="sans-serif" font-size="14" lengthAdjust="spacing" textLength="78" x="38" y="212.0303">Optimisation</text><!--MD5=[b06be98fde4b61ca5361c8148d21d767]
entity PPinput--><path d="M154,344.9971 L222,344.9971 C227,344.9971 227,367.6064 227,367.6064 C227,367.6064 227,390.2158 222,390.2158 L154,390.2158 C149,390.2158 149,367.6064 149,367.6064 C149,367.6064 149,344.9971 154,344.9971 " fill="#ADD8E6" filter="url(#fn7h668pnbtwk)" style="stroke:#A80036;stroke-width:1.5;"/><path d="M222,344.9971 C217,344.9971 217,367.6064 217,367.6064 C217,390.2158 222,390.2158 222,390.2158 " fill="none" style="stroke:#A80036;stroke-width:1.5;"/><text fill="#000000" font-family="sans-serif" font-size="14" lengthAdjust="spacing" textLength="58" x="154" y="364.5303">ProdPlan</text><text fill="#000000" font-family="sans-serif" font-size="14" lengthAdjust="spacing" textLength="31" x="166" y="382.1396">input</text><!--MD5=[1ba846fbb37878b2da15a9fa4a37fc9e]
entity PPresponse--><path d="M267.5,344.9971 L336.5,344.9971 C341.5,344.9971 341.5,367.6064 341.5,367.6064 C341.5,367.6064 341.5,390.2158 336.5,390.2158 L267.5,390.2158 C262.5,390.2158 262.5,367.6064 262.5,367.6064 C262.5,367.6064 262.5,344.9971 267.5,344.9971 " fill="#ADD8E6" filter="url(#fn7h668pnbtwk)" style="stroke:#A80036;stroke-width:1.5;"/><path d="M336.5,344.9971 C331.5,344.9971 331.5,367.6064 331.5,367.6064 C331.5,390.2158 336.5,390.2158 336.5,390.2158 " fill="none" style="stroke:#A80036;stroke-width:1.5;"/><text fill="#000000" font-family="sans-serif" font-size="14" lengthAdjust="spacing" textLength="58" x="267.5" y="364.5303">ProdPlan</text><text fill="#000000" font-family="sans-serif" font-size="14" lengthAdjust="spacing" textLength="59" x="267.5" y="382.1396">response</text><!--MD5=[baff9f903f7115f0c40a0c96a81e173c]
entity ARinput--><path d="M382,344.9971 L440,344.9971 C445,344.9971 445,367.6064 445,367.6064 C445,367.6064 445,390.2158 440,390.2158 L382,390.2158 C377,390.2158 377,367.6064 377,367.6064 C377,367.6064 377,344.9971 382,344.9971 " fill="#ADD8E6" filter="url(#fn7h668pnbtwk)" style="stroke:#A80036;stroke-width:1.5;"/><path d="M440,344.9971 C435,344.9971 435,367.6064 435,367.6064 C435,390.2158 440,390.2158 440,390.2158 " fill="none" style="stroke:#A80036;stroke-width:1.5;"/><text fill="#000000" font-family="sans-serif" font-size="14" lengthAdjust="spacing" textLength="48" x="382" y="364.5303">ActPlan</text><text fill="#000000" font-family="sans-serif" font-size="14" lengthAdjust="spacing" textLength="31" x="390" y="382.1396">input</text><!--MD5=[d9b7a0a06058fac888978f8450025da9]
entity ARresponse--><path d="M485.5,344.9971 L554.5,344.9971 C559.5,344.9971 559.5,367.6064 559.5,367.6064 C559.5,367.6064 559.5,390.2158 554.5,390.2158 L485.5,390.2158 C480.5,390.2158 480.5,367.6064 480.5,367.6064 C480.5,367.6064 480.5,344.9971 485.5,344.9971 " fill="#ADD8E6" filter="url(#fn7h668pnbtwk)" style="stroke:#A80036;stroke-width:1.5;"/><path d="M554.5,344.9971 C549.5,344.9971 549.5,367.6064 549.5,367.6064 C549.5,390.2158 554.5,390.2158 554.5,390.2158 " fill="none" style="stroke:#A80036;stroke-width:1.5;"/><text fill="#000000" font-family="sans-serif" font-size="14" lengthAdjust="spacing" textLength="48" x="485.5" y="364.5303">ActPlan</text><text fill="#000000" font-family="sans-serif" font-size="14" lengthAdjust="spacing" textLength="59" x="485.5" y="382.1396">response</text><!--MD5=[5e5506b14a1df7970de0586d006fc08f]
entity ActivationRequest--><rect fill="#FEFECE" filter="url(#fn7h668pnbtwk)" height="65.2188" style="stroke:#A80036;stroke-width:1.5;" width="101" x="616.5" y="168.9971"/><rect fill="#FEFECE" height="10" style="stroke:#A80036;stroke-width:1.5;" width="15" x="697.5" y="173.9971"/><rect fill="#FEFECE" height="2" style="stroke:#A80036;stroke-width:1.5;" width="4" x="695.5" y="175.9971"/><rect fill="#FEFECE" height="2" style="stroke:#A80036;stroke-width:1.5;" width="4" x="695.5" y="179.9971"/><text fill="#000000" font-family="sans-serif" font-size="14" lengthAdjust="spacing" textLength="61" x="631.5" y="203.5303">Activation</text><text fill="#000000" font-family="sans-serif" font-size="14" lengthAdjust="spacing" textLength="53" x="635.5" y="221.1396">Request</text><!--MD5=[0efd3a2bc67592c7e2c20e4c6c6cee3a]
entity TSO--><path d="M844.6733,187.217 C847.2579,179.8008 851.4009,180.6141 856.5659,184.5024 C858.4216,179.2523 862.4247,178.2048 866.7397,181.6126 C871.0666,176.8243 875.161,177.1981 877.41,183.5948 C882.181,178.5196 888.041,179.6665 889.3846,186.9229 C897.1463,190.6151 897.4249,196.56 891.3306,202.0363 C898.851,208.4943 896.0109,213.8393 888.5971,217.6893 C882.9308,227.6299 875.2857,229.2775 867.2981,220.3031 C861.0167,231.196 851.5992,228.0294 846.6626,218.9159 C838.4052,216.7674 834.8216,209.8303 841.9121,203.0782 C834.4373,197.4693 836.034,190.0207 844.6733,187.217 " fill="#FFC0CB" filter="url(#fn7h668pnbtwk)" style="stroke:#000000;stroke-width:1.5;"/><text fill="#000000" font-family="sans-serif" font-size="14" lengthAdjust="spacing" textLength="29" x="851.5" y="207.0303">TSO</text><!--MD5=[fb70a097f6ce6a137ada06cee43a99c1]
link Optimisation to Mesh--><path d="M141.04,201.4971 C171.32,201.4971 207.51,201.4971 234.93,201.4971 " fill="none" id="Optimisation-to-Mesh" style="stroke:#A80036;stroke-width:1.0;"/><polygon fill="#A80036" points="239.94,201.4971,230.94,197.4971,234.94,201.4971,230.94,205.4971,239.94,201.4971" style="stroke:#A80036;stroke-width:1.0;"/><text fill="#000000" font-family="sans-serif" font-size="13" lengthAdjust="spacing" textLength="62" x="159.5" y="178.9922">Production</text><text fill="#000000" font-family="sans-serif" font-size="13" lengthAdjust="spacing" textLength="39" x="171" y="195.3438">plan ts</text><!--MD5=[8af7e5f0023d8e8350a358807d839bfd]
link Mesh to Export--><path d="M314.19,201.4971 C324.06,201.4971 333.93,201.4971 343.8,201.4971 " fill="none" id="Mesh-to-Export" style="stroke:#A80036;stroke-width:1.0;"/><polygon fill="#A80036" points="348.96,201.4971,339.96,197.4971,343.96,201.4971,339.96,205.4971,348.96,201.4971" style="stroke:#A80036;stroke-width:1.0;"/><!--MD5=[f567ab4fc1b5f0a4a385727414fc008a]
link Export to PPinput--><path d="M370.7,225.6271 C360.3,237.1671 346.31,250.2871 331,257.9971 C277.04,285.1871 238.31,236.8971 197,280.9971 C182.54,296.4271 181.33,320.9671 183.13,339.8071 " fill="none" id="Export-to-PPinput" style="stroke:#0000FF;stroke-width:1.0;"/><polygon fill="#0000FF" points="183.71,344.9571,186.6828,335.5676,183.1531,339.9882,178.7325,336.4585,183.71,344.9571" style="stroke:#0000FF;stroke-width:1.0;"/><text fill="#000000" font-family="sans-serif" font-size="13" lengthAdjust="spacing" textLength="62" x="198" y="295.4922">Production</text><text fill="#000000" font-family="sans-serif" font-size="13" lengthAdjust="spacing" textLength="53" x="202.5" y="311.8438">plan msg</text><!--MD5=[e4a77a95697af25b0907800179a21003]
reverse link ActivationRequest to TSO--><path d="M722.51,232.8971 C728.28,235.1671 734.17,237.1071 740,238.4971 C755.99,242.3171 798.34,243.4971 814,238.4971 C822.76,235.6971 831.31,230.8271 838.86,225.5171 " fill="none" id="ActivationRequest-backto-TSO" style="stroke:#A80036;stroke-width:1.0;"/><polygon fill="#A80036" points="717.69,230.9171,724.4968,238.0351,722.3155,232.8158,727.5348,230.6344,717.69,230.9171" style="stroke:#A80036;stroke-width:1.0;"/><text fill="#000000" font-family="sans-serif" font-size="13" lengthAdjust="spacing" textLength="56" x="749" y="218.9922">Activation</text><text fill="#000000" font-family="sans-serif" font-size="13" lengthAdjust="spacing" textLength="72" x="741" y="235.3438">request msg</text><!--MD5=[1adcee66eb27fe165cd2710e8e9bea68]
link ActivationRequest to TSO--><path d="M717.73,201.4971 C753.22,201.4971 799.7,201.4971 831.09,201.4971 " fill="none" id="ActivationRequest-to-TSO" style="stroke:#A80036;stroke-width:1.0;stroke-dasharray:7.0,7.0;"/><polygon fill="#A80036" points="836.38,201.4971,827.38,197.4971,831.38,201.4971,827.38,205.4971,836.38,201.4971" style="stroke:#A80036;stroke-width:1.0;"/><text fill="#000000" font-family="sans-serif" font-size="13" lengthAdjust="spacing" textLength="56" x="749" y="178.9922">Activation</text><text fill="#000000" font-family="sans-serif" font-size="13" lengthAdjust="spacing" textLength="82" x="736" y="195.3438">response msg</text><!--MD5=[392df105de2f1b3469ad1d4c7ef57a6e]
link ActivationRequest to ARinput--><path d="M620.05,234.2071 C606.25,242.6771 590.85,251.3171 576,257.9971 C544.2,272.2971 531.11,263.4071 501,280.9971 C474.18,296.6571 449.04,321.7771 432.18,340.7471 " fill="none" id="ActivationRequest-to-ARinput" style="stroke:#0000FF;stroke-width:1.0;"/><polygon fill="#0000FF" points="428.5,344.9371,437.4446,340.8147,431.7996,341.1804,431.4339,335.5354,428.5,344.9371" style="stroke:#0000FF;stroke-width:1.0;"/><text fill="#000000" font-family="sans-serif" font-size="13" lengthAdjust="spacing" textLength="56" x="502" y="295.4922">Activation</text><text fill="#000000" font-family="sans-serif" font-size="13" lengthAdjust="spacing" textLength="53" x="503.5" y="311.8438">plan msg</text><!--MD5=[c11a3adc27263ff1c7bc5d7d9b07eea4]
link ActivationRequest to Mesh--><path d="M651.59,168.8671 C635.66,139.3871 607.74,97.8871 569.5,79.4971 C521.71,56.5071 374.94,58.3071 331,87.9971 C310.83,101.6271 297.98,124.9371 289.91,146.8871 " fill="none" id="ActivationRequest-to-Mesh" style="stroke:#008000;stroke-width:1.0;"/><polygon fill="#008000" points="288.16,151.8471,294.9375,144.7011,289.8308,147.1345,287.3974,142.0278,288.16,151.8471" style="stroke:#008000;stroke-width:1.0;"/><text fill="#000000" font-family="sans-serif" font-size="13" lengthAdjust="spacing" textLength="99" x="469.5" y="59.9922">Activation plan ts</text><!--MD5=[37d779f7e380cf71352ab7eb0b960a32]
link ARinput to AutoPilot--><path d="M411,390.1871 C411,415.3571 411,457.2671 411,487.5871 " fill="none" id="ARinput-to-AutoPilot" style="stroke:#0000FF;stroke-width:1.0;"/><polygon fill="#0000FF" points="411,492.7271,415,483.7271,411,487.7271,407,483.7271,411,492.7271" style="stroke:#0000FF;stroke-width:1.0;"/><!--MD5=[9b964e75e40ddd2d50ef07c9488c5369]
link PPinput to AutoPilot--><path d="M219.01,390.1871 C255.87,415.9771 317.88,459.3571 361.43,489.8171 " fill="none" id="PPinput-to-AutoPilot" style="stroke:#0000FF;stroke-width:1.0;"/><polygon fill="#0000FF" points="365.59,492.7271,360.493,484.2997,361.4878,489.8684,355.9191,490.8632,365.59,492.7271" style="stroke:#0000FF;stroke-width:1.0;"/><!--MD5=[1cf0233055e3e559c3a489f378a70661]
reverse link PPresponse to AutoPilot--><path d="M320.09,394.3871 C338.95,421.3771 368.54,463.7271 388.8,492.7271 " fill="none" id="PPresponse-backto-AutoPilot" style="stroke:#0000FF;stroke-width:1.0;stroke-dasharray:7.0,7.0;"/><polygon fill="#0000FF" points="317.16,390.1871,319.0397,399.8549,320.0254,394.2846,325.5957,395.2703,317.16,390.1871" style="stroke:#0000FF;stroke-width:1.0;"/><!--MD5=[6730f3ffb35a187e4bc985be4e0daa4b]
reverse link ARresponse to AutoPilot--><path d="M501.91,394.3871 C483.05,421.3771 453.46,463.7271 433.2,492.7271 " fill="none" id="ARresponse-backto-AutoPilot" style="stroke:#0000FF;stroke-width:1.0;stroke-dasharray:7.0,7.0;"/><polygon fill="#0000FF" points="504.84,390.1871,496.4043,395.2703,501.9746,394.2846,502.9603,399.8549,504.84,390.1871" style="stroke:#0000FF;stroke-width:1.0;"/><!--MD5=[396f5784cfc735a60ed8a61e8569a2b7]
link ARresponse to ActivationRequest--><path d="M539.35,344.9071 C563.74,317.6971 605.99,270.5571 635.17,238.0171 " fill="none" id="ARresponse-to-ActivationRequest" style="stroke:#0000FF;stroke-width:1.0;stroke-dasharray:7.0,7.0;"/><polygon fill="#0000FF" points="638.66,234.1171,629.6747,238.15,635.3231,237.8407,635.6324,243.489,638.66,234.1171" style="stroke:#0000FF;stroke-width:1.0;"/><!--MD5=[07c0319d7b389d36d6d9685971f96170]
reverse link AckReceiver to PPresponse--><path d="M477.77,237.5371 C468.46,245.3471 457.92,252.8371 447,257.9971 C394.35,282.8871 359.36,239.9971 318,280.9971 C301.38,297.4771 299.02,325.3471 299.74,344.7671 " fill="none" id="AckReceiver-backto-PPresponse" style="stroke:#0000FF;stroke-width:1.0;stroke-dasharray:7.0,7.0;"/><polygon fill="#0000FF" points="481.68,234.1771,472.255,237.0351,477.8968,237.4463,477.4857,243.0882,481.68,234.1771" style="stroke:#0000FF;stroke-width:1.0;"/><text fill="#000000" font-family="sans-serif" font-size="13" lengthAdjust="spacing" textLength="62" x="319" y="295.4922">Production</text><text fill="#000000" font-family="sans-serif" font-size="13" lengthAdjust="spacing" textLength="49" x="325.5" y="311.8438">plan ack</text><!--MD5=[b3ed01a71fb61d3b0c6c5fd201d64023]
reverse link Mesh to AckReceiver--><path d="M281.03,146.8071 C286.36,116.8171 298.35,81.9671 325,62.9971 C367,33.0971 397.01,36.1171 441,62.9971 C478.47,85.8971 496.98,135.5271 505.5,168.7271 " fill="none" id="Mesh-backto-AckReceiver" style="stroke:#A80036;stroke-width:1.0;stroke-dasharray:7.0,7.0;"/><polygon fill="#A80036" points="280.17,151.9571,285.6029,143.7422,280.9966,147.0259,277.713,142.4196,280.17,151.9571" style="stroke:#A80036;stroke-width:1.0;"/><text fill="#000000" font-family="sans-serif" font-size="13" lengthAdjust="spacing" textLength="0" x="385" y="43.4922"/><text fill="#000000" font-family="sans-serif" font-size="13" lengthAdjust="spacing" textLength="0" x="385" y="59.8438"/><text fill="#000000" font-family="sans-serif" font-size="13" lengthAdjust="spacing" textLength="114" x="326" y="76.1953">Update export state</text><!--MD5=[ab32f9a8d70587a2e894a61c65c0746f]
link AutoPilot to ScadaSystem--><path d="M478.77,525.4971 C520.46,525.4971 572.91,525.4971 610.46,525.4971 " fill="none" id="AutoPilot-to-ScadaSystem" style="stroke:#A80036;stroke-width:1.0;"/><polygon fill="#A80036" points="615.89,525.4971,606.89,521.4971,610.89,525.4971,606.89,529.4971,615.89,525.4971" style="stroke:#A80036;stroke-width:1.0;"/><text fill="#000000" font-family="sans-serif" font-size="13" lengthAdjust="spacing" textLength="59" x="517.75" y="502.9922">Set-points</text><text fill="#000000" font-family="sans-serif" font-size="13" lengthAdjust="spacing" textLength="65" x="514.75" y="519.3438">using ICCP</text><!--MD5=[cc4a96e03eac3d6beb1979146cb1e65f]
link Export to AckReceiver--><!--MD5=[b443396bcf45e27d9d564a8b34ac5389]
link AckReceiver to ActivationRequest--><!--MD5=[7dc0ae38b456c0fcce3646b7380955d5]
link PPinput to PPresponse--><!--MD5=[e800c41b512efa1c30546b63ea7a4786]
link PPresponse to ARinput--><!--MD5=[4c9c27b84570454b407b375eb725ef84]
link ARinput to ARresponse--><!--MD5=[12a59d6429852aa403f85478d3b8513e]
@startuml AutoPilot-overview
title Overview of ScadaGateway - AutoPilot installation
cloud TSO #Pink
rectangle Scada #LightGray {
  component "Scada\nSystem" as ScadaSystem #LightGreen
}
rectangle "Volue solution" as Volue #LightGrey {
  component "ScadaGateway\n     AutoPilot" as AutoPilot
  database "\n  Mesh /\nSmG DB\n" as Mesh
  component Export
  component "    Ack\nReceiver" as AckReceiver
  component Optimisation
  queue "ProdPlan\n   input" as PPinput #LightBlue 
  queue "ProdPlan\nresponse" as PPresponse #LightBlue
  queue "ActPlan\n  input" as ARinput #LightBlue
  queue "ActPlan\nresponse" as ARresponse #LightBlue
}
rectangle "Generis solution" as Generis #Pink {
  component "Activation\n Request" as ActivationRequest
}
Optimisation -r-> Mesh : Production\nplan ts
Mesh -r-> Export 
Export - -> PPinput #Blue : Production\nplan msg
TSO -l-> ActivationRequest : Activation\nrequest msg
ActivationRequest - -> ARinput #Blue : Activation\nplan msg
ActivationRequest - -> Mesh #Green : Activation plan ts
ARinput - -> AutoPilot #Blue
PPinput - -> AutoPilot #Blue
AutoPilot .u.> PPresponse #Blue
AutoPilot .u.> ARresponse #Blue
ARresponse ..> ActivationRequest #Blue
ActivationRequest .r.> TSO : Activation\nresponse msg
PPresponse .u.> AckReceiver #Blue : Production\nplan ack
AckReceiver .l.> Mesh : \n\nUpdate export state
AutoPilot -r-> ScadaSystem : Set-points\nusing ICCP
Export -[hidden]r-> AckReceiver
AckReceiver -[hidden]r-> ActivationRequest
PPinput -[hidden]r-> PPresponse
PPresponse -[hidden]r-> ARinput
ARinput -[hidden]r-> ARresponse
@enduml

PlantUML version 1.2021.7(Sun May 23 14:40:07 CEST 2021)
(GPL source distribution)
Java Runtime: OpenJDK Runtime Environment
JVM: OpenJDK 64-Bit Server VM
Default Encoding: UTF-8
Language: en
Country: US
--></g></svg>